<?xml version="1.0" standalone="no"?>
<!DOCTYPE svg PUBLIC "-//W3C//DTD SVG 20010904//EN"
 "http://www.w3.org/TR/2001/REC-SVG-20010904/DTD/svg10.dtd">
<svg version="1.0" xmlns="http://www.w3.org/2000/svg"
 width="512.000000pt" height="512.000000pt" viewBox="0 0 512.000000 512.000000"
 preserveAspectRatio="xMidYMid meet">

<g transform="translate(0.000000,512.000000) scale(0.100000,-0.100000)"
fill="#000000" stroke="none">
<path d="M2430 4635 c-30 -7 -84 -16 -120 -20 -84 -8 -272 -90 -307 -133 -7
-8 -24 -16 -37 -17 -23 -3 -96 -41 -96 -50 0 -2 11 -2 25 1 14 2 25 0 25 -5 0
-6 14 -4 33 3 17 7 42 12 55 11 12 -1 22 1 22 5 0 8 16 10 102 13 40 1 68 -2
68 -8 0 -5 4 -4 9 3 4 8 10 13 12 12 2 -1 12 2 21 5 9 4 25 2 37 -4 23 -13 32
-14 29 -3 -2 4 1 9 7 12 5 3 10 -4 10 -15 0 -16 6 -20 30 -18 17 1 22 -1 13
-3 -10 -3 -18 -10 -18 -16 0 -5 7 -7 16 -4 14 6 15 4 4 -9 -8 -9 -21 -14 -31
-12 -12 3 -15 0 -12 -14 3 -9 11 -15 17 -13 7 3 19 -2 26 -10 7 -9 16 -13 22
-10 5 3 14 1 21 -4 7 -5 27 -13 46 -17 25 -5 30 -10 20 -16 -9 -6 5 -8 39 -5
29 2 55 -1 58 -6 4 -6 10 -5 15 3 7 11 9 11 9 -2 0 -9 7 -20 16 -23 22 -8 26
-8 19 4 -3 6 -2 10 4 10 5 0 13 -4 16 -10 3 -5 12 -10 18 -10 7 0 6 4 -3 10
-10 7 -11 10 -2 10 8 0 10 8 6 24 -5 21 -3 23 23 18 23 -5 25 -7 7 -10 -17 -2
-21 -9 -18 -33 3 -20 -1 -29 -11 -29 -8 0 -15 -4 -15 -10 0 -5 5 -10 11 -10 8
0 8 -4 0 -14 -8 -9 -37 -14 -99 -14 -48 0 -79 2 -69 5 9 2 17 9 17 15 0 6 -12
3 -26 -7 -26 -17 -62 -22 -157 -24 -76 -2 -45 -20 36 -22 129 -2 211 -2 262 1
84 5 102 1 108 -19 4 -16 -3 -19 -52 -25 -31 -3 -117 -6 -191 -7 -74 -1 -141
-4 -147 -6 -27 -10 1 -24 43 -22 24 2 46 0 50 -4 3 -3 35 -4 69 -1 48 4 66 2
78 -10 8 -9 17 -12 19 -8 2 4 39 15 83 24 62 13 92 14 134 6 29 -5 61 -6 70
-2 9 4 30 6 46 5 17 0 66 5 110 13 l80 15 -123 -2 c-119 -2 -165 7 -79 15 85
8 363 7 332 -1 -26 -8 -147 -34 -212 -47 -13 -2 -23 -11 -23 -19 0 -8 -7 -15
-15 -15 -14 0 -37 -16 -71 -48 -12 -11 -14 -11 -14 2 0 8 -5 18 -11 22 -8 4
-9 -1 -4 -16 5 -14 3 -20 -3 -16 -10 6 -82 -129 -82 -156 0 -7 -7 -22 -15 -32
-8 -11 -15 -28 -15 -39 0 -10 -11 -33 -25 -51 -14 -18 -25 -38 -25 -45 0 -7
-4 -10 -9 -6 -6 3 -14 -3 -20 -12 -9 -16 -11 -15 -12 7 -1 14 -5 0 -8 -30 -5
-45 -10 -57 -31 -67 -30 -15 -38 -35 -39 -90 -1 -31 -5 -43 -16 -43 -8 0 -15
5 -15 10 0 6 -4 10 -9 10 -12 0 -21 -39 -11 -45 5 -3 12 -20 16 -38 4 -17 9
-26 11 -19 6 16 23 16 23 -1 0 -13 46 -67 58 -67 4 0 16 -12 26 -27 11 -14 15
-24 10 -20 -6 3 -16 1 -24 -4 -13 -9 -13 -12 2 -21 14 -11 14 -13 -9 -25 -14
-7 -28 -11 -31 -8 -3 3 1 5 9 5 10 1 9 4 -4 11 -22 13 -57 3 -57 -17 0 -8 9
-14 21 -14 11 0 17 -4 14 -10 -3 -5 -14 -10 -24 -10 -10 0 -24 -6 -30 -14 -10
-12 1 -15 66 -21 95 -8 113 -19 111 -69 -1 -20 4 -42 10 -48 14 -14 16 -3 3
21 -6 10 -6 23 0 32 7 12 9 12 10 -1 1 -8 3 -19 3 -25 1 -5 5 -15 9 -21 4 -7
0 -17 -8 -24 -16 -13 -21 -45 -6 -36 5 4 12 0 14 -6 4 -10 6 -10 6 0 1 7 5 11
10 8 5 -3 8 0 7 7 0 6 4 13 9 15 6 1 10 -4 10 -10 0 -7 4 -16 9 -19 4 -4 -5
-12 -21 -19 l-30 -14 18 -49 c15 -40 15 -46 3 -36 -13 11 -14 9 -8 -17 6 -28
6 -28 -10 -9 -10 13 -15 15 -14 5 2 -8 -3 -14 -11 -15 -24 0 -23 -21 1 -33 13
-6 17 -11 10 -11 -7 -1 -11 -5 -8 -10 4 -5 -2 -7 -12 -4 -11 2 -25 -1 -33 -9
-23 -21 -60 -40 -67 -34 -3 3 0 6 6 6 7 0 12 5 12 10 0 7 -6 7 -20 0 -11 -6
-20 -7 -20 -2 0 5 -9 8 -20 7 -23 -2 -40 -15 -19 -15 12 0 12 -2 0 -9 -18 -12
-144 -14 -137 -2 4 5 2 12 -3 16 -5 3 -14 -1 -18 -10 -7 -12 -12 -13 -34 -1
-15 7 -32 10 -40 6 -21 -11 -141 54 -126 69 6 6 7 14 3 18 -4 4 -11 1 -15 -6
-7 -11 -9 -11 -13 0 -3 10 -12 8 -39 -7 -19 -11 -41 -20 -49 -19 -8 1 -22 -4
-30 -11 -21 -17 -96 -23 -92 -6 1 6 -2 12 -7 12 -5 0 -12 16 -15 35 -8 38 -11
41 -30 23 -8 -7 -39 -31 -70 -53 -31 -22 -56 -45 -56 -52 0 -18 -21 -27 -30
-13 -6 9 -16 4 -36 -19 -16 -18 -36 -33 -44 -35 -41 -8 -158 -64 -180 -86 -9
-9 -24 -20 -34 -23 -9 -4 -15 -11 -12 -16 3 -5 -1 -11 -9 -15 -9 -3 -15 -18
-15 -36 0 -23 -4 -30 -19 -30 -11 0 -23 -4 -26 -10 -3 -6 1 -7 10 -4 13 5 14
2 5 -20 -5 -14 -17 -40 -25 -56 -12 -24 -13 -35 -4 -51 9 -17 8 -20 -3 -14 -7
4 -3 -3 10 -16 l23 -24 29 35 c16 19 30 41 30 49 0 18 107 121 146 141 16 8
60 34 99 57 38 24 73 43 76 43 4 0 42 20 83 45 42 25 79 45 82 45 4 0 19 -11
36 -25 16 -14 39 -25 51 -25 12 0 56 -12 97 -25 63 -21 200 -45 262 -45 9 0
24 -8 34 -17 9 -9 26 -19 37 -20 12 -2 24 -7 27 -11 3 -5 14 -8 25 -9 34 -1
126 -29 119 -36 -4 -4 -2 -7 4 -7 7 0 12 4 12 8 0 4 59 9 130 9 97 1 129 -2
124 -10 -5 -8 -2 -8 7 1 7 6 22 12 32 12 17 0 18 -2 6 -17 -13 -17 -12 -17 6
-2 11 9 33 19 48 21 26 5 27 4 11 -13 -16 -17 -15 -18 9 -6 14 6 23 15 21 19
-3 5 2 8 10 8 9 0 16 -4 16 -10 0 -16 22 -12 36 8 11 14 13 14 14 2 0 -13 1
-13 11 0 8 12 10 12 8 -5 -2 -33 1 -46 9 -41 5 3 9 -2 9 -10 0 -9 -6 -13 -16
-9 -11 3 -10 0 3 -10 18 -13 15 -19 -6 -16 -4 0 -5 -6 -2 -14 4 -8 10 -15 15
-15 5 0 9 -5 9 -10 0 -7 -6 -7 -19 0 -17 9 -19 7 -16 -10 2 -12 -8 -33 -28
-54 -27 -28 -36 -32 -51 -24 -13 8 -17 7 -12 0 4 -7 -4 -13 -21 -17 -15 -3
-84 -18 -153 -35 -216 -51 -226 -52 -516 -35 -72 4 -132 3 -168 -5 -64 -13
-245 -19 -252 -8 -3 4 -11 5 -19 1 -9 -3 -22 0 -29 6 -16 13 -217 21 -210 9 3
-4 -2 -5 -10 -2 -9 3 -13 11 -10 16 4 6 -1 6 -13 -1 -11 -6 -23 -8 -27 -6 -3
3 -4 2 -1 -2 3 -3 0 -12 -6 -19 -7 -9 -5 -14 10 -19 16 -5 21 -15 22 -46 2
-54 2 -56 17 -71 6 -6 12 -18 12 -25 0 -7 5 -13 10 -13 6 0 10 -9 10 -21 0
-11 5 -19 11 -17 13 4 89 -67 89 -82 0 -6 7 -10 15 -10 8 0 28 -14 45 -31 20
-21 36 -30 49 -26 13 3 21 -1 24 -14 7 -26 67 -61 95 -54 13 3 22 1 22 -6 0
-8 4 -8 14 0 11 9 20 10 36 1 11 -6 25 -8 30 -5 5 3 14 -4 20 -15 6 -11 20
-20 30 -20 11 0 20 -4 20 -9 0 -4 33 -11 72 -15 40 -4 77 -11 82 -16 4 -4 15
-6 22 -3 8 3 14 1 14 -5 0 -6 -5 -12 -12 -14 -8 -3 -4 -12 9 -25 19 -19 22
-19 28 -6 5 14 9 13 26 -6 11 -12 18 -29 15 -37 -3 -8 1 -14 9 -14 7 0 16 8
18 18 4 16 5 16 6 -1 1 -13 6 -17 20 -12 11 3 23 0 27 -6 4 -7 3 -9 -4 -5 -6
3 -13 2 -17 -4 -4 -6 -11 -7 -17 -4 -7 4 -8 2 -4 -5 5 -7 -4 -16 -25 -25 -21
-9 -27 -15 -18 -19 8 -3 -3 -5 -24 -3 -38 3 -38 3 -35 -30 3 -37 -5 -50 -22
-39 -9 6 -9 10 1 16 10 6 10 9 2 9 -6 0 -10 9 -8 20 2 13 0 18 -7 14 -6 -4 -8
-21 -5 -40 6 -38 -7 -54 -22 -27 -8 14 -12 16 -22 6 -11 -11 -11 -13 0 -13 7
0 9 -5 6 -10 -10 -16 -35 -12 -29 5 4 8 1 15 -4 15 -6 0 -9 -9 -7 -20 2 -11 0
-20 -6 -20 -5 0 -9 4 -9 9 0 5 -12 12 -26 15 -21 6 -24 9 -14 21 16 19 3 20
-15 1 -12 -12 -10 -16 15 -26 17 -7 30 -16 30 -21 0 -5 6 -9 14 -9 8 0 16 -3
19 -7 2 -5 2 -2 1 4 -2 7 4 13 13 13 9 0 13 -3 10 -7 -4 -3 -2 -12 5 -20 6 -8
7 -13 2 -12 -29 5 -36 -2 -29 -29 5 -22 4 -25 -6 -14 -17 16 -29 15 -29 -1 0
-14 34 -16 46 -4 12 12 26 8 18 -5 -6 -10 -5 -10 7 -1 21 17 63 -15 48 -37 -9
-13 -10 -13 -6 2 6 18 -19 33 -28 18 -4 -6 -2 -10 3 -10 5 0 9 -7 9 -15 0 -20
-27 -28 -33 -10 -7 16 -34 21 -34 6 0 -5 -16 -11 -36 -13 -32 -4 -34 -3 -18 9
10 7 24 13 31 13 7 0 13 5 13 11 0 5 -5 7 -10 4 -6 -3 -13 1 -16 9 -9 23 -26
19 -19 -4 5 -15 3 -18 -9 -14 -11 4 -16 0 -17 -12 0 -11 -3 -14 -6 -6 -2 6 -8
10 -13 7 -10 -6 -58 13 -83 34 -14 11 -20 12 -30 2 -9 -10 -9 -11 5 -6 11 4
18 0 23 -14 3 -11 9 -20 13 -19 17 4 72 -15 66 -23 -3 -5 -9 -7 -13 -5 -4 3
-8 -5 -8 -16 l-2 -21 15 21 c15 21 45 23 88 6 13 -5 23 -1 33 12 9 13 16 15
21 8 4 -6 18 -14 32 -18 17 -5 21 -4 12 2 -11 7 -7 11 12 14 15 3 29 1 32 -4
3 -4 2 -8 -3 -7 -25 4 -24 -3 2 -21 17 -11 42 -20 58 -20 15 0 27 -5 27 -11 0
-6 9 -8 22 -3 20 6 21 5 9 -9 -10 -13 -18 -14 -32 -7 -15 8 -17 7 -13 -5 4 -8
10 -15 16 -15 5 0 6 -6 2 -12 -4 -7 6 -1 23 15 16 15 33 24 36 20 9 -9 41 -14
95 -16 29 -1 41 -5 38 -13 -3 -7 2 -11 12 -9 9 1 16 8 15 14 -2 7 15 11 47 11
28 0 50 -4 50 -10 0 -5 14 -7 30 -5 17 2 36 -2 43 -8 17 -16 40 -20 31 -6 -5
8 1 10 20 7 14 -3 29 -1 32 4 3 5 12 4 19 -2 8 -7 19 -9 24 -6 19 12 24 -17 6
-31 -11 -7 -15 -13 -10 -13 5 0 17 8 28 18 11 9 17 12 14 5 -4 -6 -3 -14 3
-18 5 -3 10 0 10 7 1 9 5 8 13 -4 8 -10 18 -13 26 -9 10 6 9 10 -5 15 -30 12
-8 16 24 5 18 -6 29 -15 26 -21 -4 -6 -10 -5 -15 3 -6 10 -8 7 -6 -9 1 -25 7
-27 26 -10 11 11 13 10 7 0 -5 -8 3 -14 23 -18 17 -4 31 -10 31 -14 0 -11 -50
-54 -66 -56 -21 -3 -51 -36 -56 -60 -2 -10 -8 -19 -15 -19 -6 0 -15 -3 -19 -7
-4 -5 -1 -8 6 -8 24 0 1 -12 -30 -16 -31 -4 -43 12 -13 18 14 3 14 5 -2 18
-11 8 -16 10 -12 3 4 -6 2 -15 -4 -18 -5 -4 -8 -13 -5 -21 3 -7 -3 -18 -14
-24 -26 -14 -29 -13 -25 8 1 9 8 16 14 15 6 -2 11 2 11 7 0 14 -27 12 -32 -2
-3 -7 -4 -23 -3 -36 2 -27 -6 -28 -23 -2 -14 22 -35 18 -26 -4 3 -8 0 -17 -7
-22 -8 -4 -10 -3 -5 4 4 7 5 12 3 12 -7 0 -72 -33 -85 -43 -7 -6 -33 -11 -58
-12 -36 -1 -44 2 -39 15 4 13 4 13 -7 0 -7 -8 -30 -15 -50 -15 -30 -1 -35 2
-26 12 6 8 8 16 4 20 -3 4 -13 -2 -22 -13 -13 -16 -15 -17 -10 -1 3 9 1 17 -4
17 -6 0 -10 -6 -10 -14 0 -9 -13 -13 -41 -13 -22 0 -45 -5 -52 -12 -14 -14
-30 -15 -22 -1 3 6 1 10 -4 10 -6 0 -11 -4 -11 -9 0 -16 -44 -21 -53 -6 -4 8
-13 15 -20 15 -7 0 -6 -4 3 -10 13 -9 13 -11 0 -20 -21 -14 -50 -12 -50 3 0 6
-5 4 -11 -5 -5 -10 -20 -23 -32 -28 -22 -11 -22 -11 -2 6 20 16 20 16 -2 11
-13 -3 -24 1 -27 8 -6 16 -40 9 -58 -12 -9 -11 -9 -16 1 -22 21 -13 -14 -21
-48 -11 -19 5 -31 5 -31 -1 0 -5 -13 -3 -30 6 -36 19 -41 19 -34 0 4 -8 10
-12 15 -9 5 3 16 -2 25 -10 8 -9 12 -16 7 -16 -5 0 -14 5 -21 12 -9 9 -12 9
-12 -2 -1 -11 -4 -10 -15 4 -8 10 -20 16 -28 13 -7 -3 -27 7 -43 22 -16 15
-35 26 -42 23 -6 -2 -13 1 -13 7 -1 6 -2 16 -3 21 -1 14 -28 30 -38 24 -5 -3
-11 1 -14 9 -3 9 -17 18 -31 22 -15 3 -23 11 -20 19 3 8 -1 22 -8 33 -13 16
-13 15 -10 -15 4 -30 2 -32 -11 -21 -8 7 -13 21 -10 31 4 16 2 17 -11 6 -13
-10 -18 -9 -30 7 -7 11 -16 30 -20 43 -4 17 -10 21 -25 17 -21 -7 -93 50 -93
74 0 8 -11 15 -23 16 -28 2 -44 23 -38 48 4 15 0 18 -14 14 -19 -5 -59 28 -47
39 9 9 28 -6 22 -17 -3 -5 1 -6 9 -3 24 9 -16 42 -47 39 -22 -3 -25 0 -22 23
2 15 2 21 -1 15 -8 -19 -42 2 -46 29 -2 12 -9 23 -17 26 -8 3 -11 0 -7 -7 4
-6 3 -11 -3 -11 -12 0 -43 55 -35 63 3 3 -3 4 -13 3 -12 -1 -18 6 -17 20 0 16
-4 20 -14 16 -10 -3 -13 -1 -8 6 4 7 2 12 -3 12 -6 0 -11 7 -11 16 0 8 -4 13
-9 10 -5 -3 -8 2 -7 12 0 10 -6 16 -16 16 -22 -2 -23 5 -3 20 11 8 12 15 4 26
-9 13 -10 12 -5 -2 3 -11 0 -18 -8 -18 -8 0 -22 -3 -30 -6 -14 -5 -15 -2 -6
20 5 15 6 25 1 22 -5 -3 -12 6 -15 19 -4 16 -13 25 -22 23 -9 -2 -21 6 -28 17
-6 11 -13 22 -16 25 -16 16 -39 74 -34 83 5 9 4 9 -4 2 -13 -12 1 -79 22 -105
7 -8 24 -40 39 -70 55 -116 488 -567 692 -721 119 -90 282 -179 380 -208 201
-58 659 -51 880 15 28 8 92 36 144 62 108 54 198 133 345 301 50 58 145 164
210 236 225 245 299 349 359 500 77 194 93 481 56 980 -13 180 -30 261 -106
485 -81 239 -84 280 -34 358 67 104 210 211 331 246 30 9 111 23 181 31 215
25 269 61 269 180 0 118 -79 306 -157 375 -110 97 -187 59 -307 -151 -75 -131
-86 -146 -167 -229 -78 -81 -225 -180 -277 -187 -33 -4 -45 0 -89 36 -46 36
-61 58 -126 188 -74 150 -91 179 -160 271 -25 33 -43 49 -53 45 -8 -3 -14 0
-14 6 0 6 -3 10 -7 10 -20 -3 -34 2 -28 10 3 5 1 13 -5 16 -6 4 -10 3 -9 -2 3
-18 -1 -33 -10 -33 -5 0 -7 8 -4 18 2 11 -4 25 -14 33 -16 13 -17 12 -5 -2 10
-14 10 -17 -5 -21 -27 -7 -43 1 -36 20 3 9 3 14 -2 10 -13 -12 -67 22 -61 37
3 8 0 17 -6 21 -7 5 -8 3 -3 -5 5 -10 2 -9 -13 0 -12 7 -18 17 -16 21 3 5 10
5 16 2 7 -5 8 -2 4 5 -5 7 -14 10 -21 7 -7 -2 -16 2 -19 10 -3 9 -10 12 -16 9
-5 -3 -10 -1 -10 4 0 6 -6 11 -14 11 -7 0 -20 9 -27 21 -12 17 -28 25 -62 28
-4 1 -6 6 -5 13 2 6 -8 14 -22 18 -16 4 -24 13 -23 24 1 13 -2 15 -9 8 -6 -6
-17 -8 -26 -5 -11 5 -13 3 -7 -7 5 -9 4 -11 -4 -6 -6 4 -8 12 -5 18 5 7 1 9
-9 5 -10 -4 -16 -2 -14 6 1 7 -6 11 -17 9 -10 -2 -15 1 -12 7 3 5 -7 12 -24
16 -17 4 -28 11 -24 16 3 5 2 9 -3 8 -4 -1 -10 -1 -13 1 -3 1 -15 3 -28 6 -13
2 -32 13 -44 24 -12 11 -33 20 -47 21 -14 0 -51 2 -81 5 -30 3 -66 5 -79 4
-14 0 -28 5 -32 12 -11 17 -116 19 -179 3z m-480 -199 c0 -3 -4 -8 -10 -11 -5
-3 -10 -1 -10 4 0 6 5 11 10 11 6 0 10 -2 10 -4z m555 -106 c-3 -5 -12 -10
-18 -10 -7 0 -6 4 3 10 19 12 23 12 15 0z m306 -78 c-7 -2 -18 1 -23 6 -8 8
-4 9 13 5 13 -4 18 -8 10 -11z m-90 -19 c10 -11 10 -14 2 -9 -8 4 -13 2 -13
-6 0 -10 -3 -9 -9 2 -6 8 -7 18 -5 22 7 11 10 10 25 -9z m548 -43 c31 -6 62
-17 70 -25 13 -12 10 -13 -20 -5 -64 17 -194 30 -304 32 -73 1 -95 3 -65 7 64
8 254 3 319 -9z m-371 -37 c-10 -2 -28 -2 -40 0 -13 2 -5 4 17 4 22 1 32 -1
23 -4z m1506 -222 c-4 -21 -10 -28 -14 -20 -5 7 -3 23 3 36 14 31 19 24 11
-16z m319 -47 c-1 -11 0 -13 3 -6 10 23 25 12 22 -15 -2 -20 -9 -28 -23 -29
-11 -1 -24 -3 -30 -4 -22 -5 -35 1 -35 15 0 8 5 15 11 15 5 0 8 4 5 9 -11 18
6 41 27 37 15 -2 21 -10 20 -22z m45 -44 c-7 -10 -14 -18 -15 -16 -6 6 9 36
18 36 5 0 4 -9 -3 -20z m-1635 -392 c27 -13 39 -32 13 -22 -8 3 -17 1 -21 -5
-6 -10 -47 -6 -69 7 -10 6 22 32 39 32 6 0 23 -6 38 -12z m-63 -50 c0 -6 -3
-8 -6 -5 -4 3 -15 2 -25 -4 -23 -12 -24 -6 -3 15 16 17 34 13 34 -6z m353 -60
c15 -6 27 -16 27 -23 0 -8 2 -20 5 -27 6 -14 -29 -58 -45 -58 -4 0 -11 15 -15
33 -4 17 -16 47 -26 65 l-19 33 22 -6 c13 -3 35 -11 51 -17z m-290 -40 c-8
-23 -12 -50 -10 -60 6 -21 -14 -23 -62 -7 -47 17 -41 39 23 83 57 38 67 35 49
-16z m65 20 c17 -17 15 -28 -7 -28 -19 0 -35 23 -24 34 9 9 18 7 31 -6z m-191
-94 c-3 -3 -12 -4 -19 -1 -8 3 -5 6 6 6 11 1 17 -2 13 -5z m776 -48 c15 -4 25
-11 22 -16 -3 -5 -13 -6 -23 -3 -13 4 -13 2 3 -10 15 -13 17 -17 5 -17 -10 -1
-9 -4 5 -11 17 -8 16 -9 -7 -6 -33 5 -41 -12 -22 -48 17 -34 18 -38 2 -29 -9
5 -9 2 1 -9 11 -14 11 -17 0 -17 -11 0 -11 -2 1 -10 8 -5 15 -23 16 -41 1 -20
-1 -27 -7 -18 -14 24 -23 0 -9 -26 10 -19 16 -22 22 -13 4 7 8 9 8 3 0 -18
-17 -38 -27 -32 -5 3 -10 -1 -10 -9 0 -8 6 -13 13 -10 8 3 16 1 19 -5 4 -5 1
-8 -7 -7 -7 2 -12 -1 -12 -7 3 -16 -64 -56 -72 -43 -4 7 -2 8 4 4 7 -4 12 -2
12 3 0 14 -13 14 -27 0 -11 -11 -90 -15 -101 -5 -3 3 -11 1 -19 -5 -12 -11
-18 -2 -14 24 1 9 -3 9 -24 1 -12 -5 -13 -9 -5 -14 7 -5 2 -9 -14 -12 -15 -3
-23 -1 -19 5 3 5 0 7 -8 5 -8 -3 -14 -12 -13 -20 1 -10 -7 -13 -27 -10 -17 2
-29 10 -29 19 0 10 -7 13 -22 8 -20 -5 -21 -4 -5 5 9 6 17 18 17 26 0 8 -4 12
-10 9 -5 -3 -10 1 -10 10 0 13 -4 14 -22 4 -13 -6 -20 -9 -17 -5 8 8 -40 60
-98 105 -24 18 -43 39 -43 47 0 8 -5 14 -12 14 -6 0 -4 7 5 18 21 24 21 32 0
32 -11 0 -14 3 -7 10 5 5 65 12 134 16 131 6 232 29 345 77 32 13 64 23 70 22
5 -2 23 -6 38 -9z m-1098 -16 c3 -5 1 -10 -4 -10 -6 0 -11 5 -11 10 0 6 2 10
4 10 3 0 8 -4 11 -10z m160 -160 c3 -5 -1 -10 -9 -10 -9 0 -16 5 -16 10 0 6 4
10 9 10 6 0 13 -4 16 -10z m1000 -538 c0 -9 5 -18 10 -18 6 -1 9 2 7 8 -1 5 2
7 8 3 6 -3 8 -11 5 -16 -4 -5 -1 -9 5 -9 6 0 8 -4 5 -10 -11 -17 7 -11 21 8
11 15 12 12 4 -17 -10 -35 2 -57 24 -44 5 4 7 -3 4 -14 -4 -17 -1 -20 16 -17
11 2 15 2 9 -2 -7 -3 -13 -17 -13 -30 0 -14 4 -22 10 -19 6 3 10 2 10 -4 0 -6
11 -27 25 -47 27 -39 34 -99 13 -108 -10 -3 -9 -8 3 -18 16 -13 15 -18 -10
-67 -8 -14 -9 -26 -4 -30 13 -9 9 -72 -7 -101 l-14 -25 -7 33 c-4 18 -10 36
-14 40 -5 4 -5 -1 -2 -10 4 -10 2 -18 -4 -18 -6 0 -8 -4 -4 -10 3 -5 -3 -25
-14 -45 -18 -34 -20 -35 -30 -17 -14 26 -14 42 -1 22 8 -12 11 -13 19 -1 10
16 2 53 -10 45 -5 -3 -12 3 -16 12 -4 10 -2 19 5 22 7 2 12 18 11 35 -1 31 -1
31 -9 7 -5 -18 -7 -7 -7 35 1 70 -21 183 -62 310 l-28 89 21 18 c23 19 15 24
-15 8 -10 -6 -19 -7 -19 -2 0 10 42 32 49 26 2 -2 5 -12 6 -22z m-632 -22 c-3
-11 -9 -20 -13 -20 -5 0 -6 9 -3 20 3 11 9 20 13 20 5 0 6 -9 3 -20z m525 -80
c3 -7 0 -10 -6 -6 -6 3 -14 1 -18 -5 -4 -7 -3 -9 4 -5 15 9 24 -9 24 -50 0
-19 3 -32 7 -30 10 7 2 -124 -9 -143 -14 -25 -32 33 -33 109 -1 36 -6 68 -12
72 -6 5 -3 8 7 8 9 0 19 -8 21 -17 3 -10 4 -6 4 10 -1 18 -6 26 -14 23 -9 -4
-13 4 -13 23 0 22 4 29 17 27 9 -2 19 -9 21 -16z m249 -92 c-3 -8 -6 -5 -6 6
-1 11 2 17 5 13 3 -3 4 -12 1 -19z m-1881 -305 c37 -34 28 -74 -23 -101 -33
-18 -62 -14 -87 12 -13 12 -30 25 -38 28 -7 3 -21 20 -31 37 -18 30 -18 31 2
31 11 0 23 5 26 10 4 6 34 9 67 8 46 -2 65 -7 84 -25z m234 -33 c0 -34 -42
-80 -72 -80 -44 1 -103 19 -115 36 -7 10 -13 33 -13 51 0 26 5 34 23 38 49 11
84 10 130 -4 41 -13 47 -18 47 -41z m251 39 c23 -6 40 -18 47 -34 16 -35 15
-80 -1 -94 -16 -13 -212 -45 -232 -38 -16 7 -35 68 -35 115 0 26 5 35 28 44
71 28 107 30 193 7z m292 -31 c9 -5 21 -6 26 -4 10 7 21 -17 21 -43 0 -26 -32
-52 -50 -41 -8 5 -19 5 -25 1 -9 -7 -115 -31 -137 -31 -15 0 -39 69 -32 94 3
13 15 28 27 34 24 12 141 5 170 -10z m167 -38 c11 -7 4 -10 -25 -9 -31 0 -36
2 -20 9 26 11 28 11 45 0z m913 -41 c-3 -11 -12 -23 -19 -26 -8 -3 -12 -8 -10
-12 3 -4 1 -13 -3 -20 -7 -10 -9 -10 -14 2 -3 8 3 24 14 35 10 12 19 26 19 32
0 5 4 10 9 10 5 0 7 -9 4 -21z m-1648 -153 c46 -19 44 -26 -2 -15 -21 5 -42 9
-46 9 -8 0 0 20 9 20 3 0 20 -7 39 -14z m625 -10 c0 -13 -8 -27 -17 -30 -29
-12 -222 -30 -230 -23 -3 4 -2 20 3 35 10 26 12 27 79 24 39 -1 84 2 100 7 51
16 65 13 65 -13z m-365 -36 l60 -20 -85 5 c-90 6 -96 8 -85 24 9 16 43 13 110
-9z m-75 -234 c0 -2 -7 -7 -16 -10 -8 -3 -12 -2 -9 4 6 10 25 14 25 6z m-46
-21 c-4 -8 -11 -12 -16 -9 -6 4 -5 10 3 15 19 12 19 11 13 -6z m-1269 -5 c3
-5 1 -10 -4 -10 -6 0 -11 5 -11 10 0 6 2 10 4 10 3 0 8 -4 11 -10z m1279 -39
c-10 -10 -23 -16 -28 -13 -5 3 2 11 15 18 33 18 36 17 13 -5z m-47 -17 c-3 -3
-12 -4 -19 -1 -8 3 -5 6 6 6 11 1 17 -2 13 -5z m70 -20 c-3 -3 -12 -4 -19 -1
-8 3 -5 6 6 6 11 1 17 -2 13 -5z m-82 -14 c-3 -5 -12 -10 -18 -10 -7 0 -6 4 3
10 19 12 23 12 15 0z m815 -315 c10 -12 10 -15 -2 -15 -8 0 -15 7 -15 15 0 8
1 15 2 15 2 0 8 -7 15 -15z m-75 -145 c3 -6 -1 -7 -9 -4 -18 7 -21 14 -7 14 6
0 13 -4 16 -10z m-1414 -17 c13 -16 12 -17 -3 -4 -17 13 -22 21 -14 21 2 0 10
-8 17 -17z m849 -143 c12 -8 11 -10 -7 -10 -13 0 -23 5 -23 10 0 13 11 13 30
0z m-43 -6 c-3 -3 -12 -4 -19 -1 -8 3 -5 6 6 6 11 1 17 -2 13 -5z m-262 -41
c5 -14 3 -15 -6 -6 -6 6 -18 9 -25 6 -8 -3 -14 0 -14 6 0 18 37 13 45 -6z
m-105 -43 c0 -5 -2 -10 -4 -10 -3 0 -8 5 -11 10 -3 6 -1 10 4 10 6 0 11 -4 11
-10z"/>
<path d="M3210 3021 c0 -6 4 -13 10 -16 6 -3 7 1 4 9 -7 18 -14 21 -14 7z"/>
<path d="M3615 2889 c-4 -6 -5 -12 -2 -15 2 -3 7 2 10 11 7 17 1 20 -8 4z"/>
<path d="M3597 2832 c-14 -15 -14 -19 -3 -19 8 0 17 9 19 19 3 10 4 18 3 18
-2 0 -10 -8 -19 -18z"/>
<path d="M3735 2830 c-3 -6 1 -7 9 -4 18 7 21 14 7 14 -6 0 -13 -4 -16 -10z"/>
<path d="M3987 2187 c-3 -8 1 -14 9 -14 16 0 19 13 5 21 -5 3 -11 0 -14 -7z"/>
<path d="M3960 2101 c0 -10 19 -25 25 -20 1 2 -3 10 -11 17 -8 7 -14 8 -14 3z"/>
<path d="M3971 2004 c0 -11 3 -14 6 -6 3 7 2 16 -1 19 -3 4 -6 -2 -5 -13z"/>
<path d="M3105 4480 c3 -5 16 -10 28 -9 21 0 21 1 2 9 -28 12 -37 12 -30 0z"/>
<path d="M2106 4421 c-36 -7 -42 -22 -17 -38 16 -10 23 -10 35 3 9 8 28 21 43
29 l28 15 -30 -1 c-16 -1 -43 -4 -59 -8z"/>
<path d="M1953 4405 c-17 -7 -34 -11 -37 -8 -3 4 -6 1 -6 -5 0 -7 -5 -12 -11
-12 -5 0 -7 5 -4 10 3 6 2 10 -4 10 -5 0 -13 -5 -16 -11 -4 -5 -18 -15 -32
-20 -14 -5 -23 -12 -19 -16 3 -3 0 -13 -6 -22 -8 -10 -3 -8 12 4 14 11 29 26
33 33 13 19 29 14 22 -8 -14 -44 69 -8 95 41 6 10 9 19 8 19 -2 -1 -17 -7 -35
-15z"/>
<path d="M2225 4410 c-4 -6 3 -10 14 -10 25 0 27 6 6 13 -8 4 -17 2 -20 -3z"/>
<path d="M2295 4410 c-3 -6 1 -7 9 -4 18 7 21 14 7 14 -6 0 -13 -4 -16 -10z"/>
<path d="M3304 4365 c11 -8 25 -15 30 -15 6 0 2 7 -8 15 -11 8 -25 15 -30 15
-6 0 -2 -7 8 -15z"/>
<path d="M1729 4303 l-24 -28 28 24 c25 23 32 31 24 31 -2 0 -14 -12 -28 -27z"/>
<path d="M3345 4300 c4 -6 11 -8 16 -5 14 9 11 15 -7 15 -8 0 -12 -5 -9 -10z"/>
<path d="M2445 4270 c3 -5 8 -10 11 -10 2 0 4 5 4 10 0 6 -5 10 -11 10 -5 0
-7 -4 -4 -10z"/>
<path d="M2300 4230 c0 -6 7 -10 15 -10 8 0 15 2 15 4 0 2 -7 6 -15 10 -8 3
-15 1 -15 -4z"/>
<path d="M1633 4160 c-13 -15 -26 -36 -30 -46 -6 -18 -5 -18 13 -2 23 20 58
78 47 77 -4 0 -18 -13 -30 -29z"/>
<path d="M2218 4173 c7 -3 16 -2 19 1 4 3 -2 6 -13 5 -11 0 -14 -3 -6 -6z"/>
<path d="M490 4137 c-43 -22 -53 -38 -28 -45 9 -2 8 0 -2 8 -13 10 -13 11 0 7
8 -2 17 -12 19 -23 2 -10 0 -16 -4 -12 -5 4 -14 3 -21 -3 -8 -6 -20 -9 -28 -6
-14 6 -36 -10 -36 -26 0 -5 7 -4 15 3 18 15 18 10 5 -24 -5 -14 -16 -26 -24
-26 -8 0 -18 -5 -22 -11 -4 -8 1 -9 17 -4 21 7 22 6 10 -8 -7 -9 -11 -23 -8
-31 3 -8 -1 -20 -9 -27 -8 -6 -12 -14 -9 -17 3 -3 1 -10 -4 -16 -14 -18 -22
-48 -11 -41 6 3 10 1 10 -4 0 -6 -4 -11 -10 -11 -5 0 -7 -7 -3 -17 9 -22 8
-77 -1 -91 -11 -18 5 -14 28 6 19 17 19 17 3 -8 -21 -30 -21 -40 -1 -40 8 0
12 -5 8 -11 -5 -8 11 -9 57 -4 116 14 207 59 234 118 l15 32 -5 -30 c-7 -36
-53 -78 -112 -102 -24 -10 -43 -22 -43 -26 0 -5 -13 -6 -30 -2 -20 4 -30 3
-30 -5 0 -9 -12 -10 -42 -5 -24 4 -49 7 -55 8 -7 0 -13 4 -13 8 0 5 -7 6 -16
2 -13 -5 -15 -2 -10 15 8 24 -9 39 -18 16 -9 -23 21 -72 56 -94 34 -20 67 -26
238 -40 182 -15 281 -48 380 -129 57 -46 118 -111 134 -142 17 -35 40 -31 42
9 2 35 14 58 14 27 0 -12 8 -4 20 20 11 22 20 44 19 50 0 5 -4 1 -8 -9 -5 -12
-10 -15 -14 -9 -7 12 29 63 44 63 19 0 37 27 41 61 2 27 0 34 -14 33 -10 -1
-15 2 -12 7 3 5 12 9 20 9 8 0 14 7 14 15 0 8 5 16 10 16 6 1 15 2 22 3 6 0
13 6 15 13 7 19 -30 20 -62 1 -41 -25 -58 -23 -129 13 -157 80 -267 179 -365
328 -102 156 -129 188 -174 210 -54 26 -64 26 -117 -2z m124 -52 c7 -11 17
-36 21 -55 4 -19 10 -39 14 -45 4 -5 8 -23 9 -40 1 -16 -1 -24 -4 -18 -3 7 -5
15 -4 19 1 4 -3 10 -8 13 -6 3 -13 22 -16 42 -7 44 -44 106 -68 114 -10 4 -18
11 -18 16 0 14 58 -22 74 -46z m-94 41 c0 -3 -4 -8 -10 -11 -5 -3 -10 -1 -10
4 0 6 5 11 10 11 6 0 10 -2 10 -4z m0 -36 c0 -5 -4 -10 -10 -10 -5 0 -10 5
-10 10 0 6 5 10 10 10 6 0 10 -4 10 -10z m154 -195 c3 -8 1 -15 -4 -15 -6 0
-10 7 -10 15 0 8 2 15 4 15 2 0 6 -7 10 -15z m16 -57 c0 -19 -2 -20 -10 -8
-13 19 -13 30 0 30 6 0 10 -10 10 -22z m560 -352 c0 -3 -4 -8 -10 -11 -5 -3
-10 -1 -10 4 0 6 5 11 10 11 6 0 10 -2 10 -4z"/>
<path d="M2250 4109 c0 -5 19 -9 42 -9 23 0 38 3 35 6 -10 11 -77 13 -77 3z"/>
<path d="M1732 4083 c-12 -14 -26 -22 -32 -18 -5 3 -10 1 -10 -6 0 -7 -7 -4
-15 7 -14 18 -14 18 -10 -4 2 -14 -2 -25 -10 -29 -8 -3 -12 -9 -9 -14 3 -5 -2
-9 -10 -9 -28 0 -31 -1 -40 -18 -6 -11 -5 -17 3 -20 14 -5 -5 -32 -23 -32 -6
0 -4 5 4 10 11 8 8 9 -14 6 -32 -6 -48 -16 -23 -16 9 0 19 -5 23 -12 4 -6 3
-8 -3 -5 -6 4 -19 0 -29 -8 -18 -14 -18 -14 6 -15 25 -1 25 -1 -4 -13 -33 -14
-56 -73 -48 -125 l4 -30 33 33 c18 19 44 37 59 41 14 3 26 10 26 14 0 5 6 10
13 13 6 2 1 2 -13 0 -22 -3 -23 -2 -7 8 26 16 50 18 65 6 8 -6 12 -6 12 2 0 9
5 9 20 1 18 -10 24 -7 21 13 0 4 8 7 20 7 11 0 18 -4 15 -8 -2 -4 4 -9 15 -9
17 -2 18 1 8 13 -10 12 -9 13 6 8 14 -6 16 -4 10 6 -5 9 -4 11 4 6 6 -4 8 -13
5 -19 -5 -9 -4 -9 6 0 10 9 16 8 27 -3 8 -8 19 -11 24 -8 6 3 20 -2 31 -13 12
-10 18 -13 15 -6 -5 8 4 10 30 8 21 -1 42 0 47 3 20 12 65 9 70 -4 3 -8 10
-14 15 -14 6 0 8 8 4 18 -6 16 -5 16 13 1 27 -23 48 -34 41 -22 -3 5 15 -1 41
-13 26 -13 56 -24 68 -24 11 0 26 -6 33 -12 11 -11 12 -10 6 0 -6 11 -3 11 16
0 13 -7 27 -17 31 -23 4 -5 8 3 8 18 0 15 -7 30 -15 33 -8 4 -15 11 -15 17 0
6 13 -1 28 -16 16 -15 31 -25 35 -21 8 9 -3 35 -13 29 -11 -7 -15 2 -24 40 -5
22 -4 26 4 15 5 -8 10 -10 10 -5 0 6 -9 21 -20 35 -11 14 -20 32 -21 40 0 8
-4 4 -9 -10 l-7 -25 -7 27 c-5 15 -13 25 -20 22 -7 -3 -21 4 -31 16 -18 20
-41 28 -30 10 3 -5 2 -10 -4 -10 -5 0 -13 10 -16 21 -4 13 -10 17 -14 11 -14
-22 -91 0 -91 27 0 14 -2 14 -10 1 -9 -13 -10 -13 -11 0 0 10 -3 8 -9 -5 l-9
-20 0 20 c-1 17 -3 18 -11 5 -9 -13 -12 -13 -20 2 -6 10 -26 20 -45 24 -27 5
-35 11 -35 28 0 17 -2 19 -11 6 -8 -12 -12 -12 -16 -2 -4 10 -8 9 -19 -5 -11
-14 -13 -15 -14 -3 0 12 -2 13 -9 1 -5 -7 -14 -10 -20 -6 -9 5 -9 11 1 23 11
15 11 15 -2 6 -17 -12 -63 -17 -56 -5 12 19 -23 5 -42 -16z m48 -19 c0 -8 -5
-14 -11 -14 -5 0 -7 5 -4 10 3 6 1 10 -4 10 -6 0 -11 4 -11 10 0 5 7 7 15 4 8
-4 15 -12 15 -20z m196 -211 c-6 -6 -36 9 -36 18 0 5 9 4 20 -3 10 -7 18 -14
16 -15z m314 -15 c0 -6 -6 -5 -15 2 -8 7 -15 14 -15 16 0 2 7 1 15 -2 8 -4 15
-11 15 -16z m-722 -18 c15 -1 15 -2 -1 -11 -9 -5 -22 -7 -28 -4 -6 4 -20 -1
-32 -12 -21 -18 -21 -18 -7 2 22 31 44 47 48 35 2 -5 11 -10 20 -10z m707 0
c3 -5 1 -10 -4 -10 -6 0 -11 5 -11 10 0 6 2 10 4 10 3 0 8 -4 11 -10z"/>
<path d="M1978 4083 c6 -2 18 -2 25 0 6 3 1 5 -13 5 -14 0 -19 -2 -12 -5z"/>
<path d="M2715 4067 c-24 -6 -144 -9 -299 -7 -215 2 -258 0 -254 -11 3 -8 14
-15 26 -17 12 -2 22 -7 22 -11 0 -5 11 -6 25 -3 13 2 33 1 42 -3 10 -3 47 -9
83 -11 36 -3 81 -7 100 -10 19 -2 42 -4 50 -4 8 0 28 0 44 0 21 0 27 3 23 14
-4 11 -1 13 10 9 9 -4 14 -2 10 3 -3 6 12 10 39 9 27 0 65 8 92 21 26 11 54
24 62 27 26 10 -33 5 -75 -6z"/>
<path d="M325 3880 c-3 -5 -1 -10 4 -10 6 0 11 5 11 10 0 6 -2 10 -4 10 -3 0
-8 -4 -11 -10z"/>
<path d="M1429 3841 c-1 -3 -3 -17 -4 -30 -1 -13 -7 -26 -13 -30 -18 -11 -46
-91 -35 -102 14 -14 56 56 59 98 2 18 7 41 13 51 8 14 7 19 -5 19 -7 0 -15 -3
-15 -6z"/>
<path d="M2662 3680 c0 -14 2 -19 5 -12 2 6 2 18 0 25 -3 6 -5 1 -5 -13z"/>
<path d="M2245 3640 c-11 -4 -37 -6 -57 -5 -21 1 -38 -2 -38 -7 0 -5 -6 -8
-12 -7 -12 2 -26 -2 -75 -21 -13 -5 -25 -5 -28 -1 -8 13 -47 0 -41 -14 2 -6 0
-18 -6 -26 -8 -11 -9 -10 -4 4 3 9 1 17 -4 17 -6 0 -10 -4 -10 -8 0 -15 -37
-52 -44 -45 -3 3 -6 2 -6 -4 0 -18 13 -23 28 -10 10 7 13 8 9 1 -4 -7 5 -14
25 -18 17 -3 37 -11 45 -17 18 -15 17 -49 -2 -49 -8 0 -15 -6 -15 -12 0 -9 -4
-8 -10 2 -8 12 -10 10 -11 -10 l-1 -25 -7 25 -7 25 -9 -25 -9 -25 -7 25 c-4
16 -7 19 -8 8 -1 -20 -21 -25 -22 -5 0 6 -5 1 -10 -12 -9 -23 -10 -23 -29 -6
-18 16 -20 16 -20 2 0 -9 -4 -19 -10 -22 -6 -4 -7 1 -3 12 6 16 5 16 -10 5 -9
-8 -22 -10 -28 -6 -8 5 -10 2 -6 -8 6 -17 -8 -19 -32 -4 -11 7 -13 5 -8 -6 4
-12 1 -14 -14 -11 -10 3 -27 2 -36 -2 -10 -5 -24 -7 -30 -6 -7 1 -13 -5 -13
-13 0 -10 -6 -13 -17 -9 -10 4 -14 2 -10 -4 4 -6 0 -18 -8 -26 -11 -12 -12
-17 -2 -20 7 -3 5 -6 -5 -6 -10 -1 -18 -5 -18 -11 0 -5 -8 -10 -17 -11 -15 0
-15 -2 2 -8 19 -8 19 -9 -5 -16 l-25 -9 25 -6 c14 -4 24 -12 22 -19 -1 -7 2
-10 8 -6 5 3 10 1 10 -4 0 -6 3 -10 8 -10 19 3 33 -2 27 -11 -5 -9 7 -14 26
-12 4 1 24 -7 44 -17 21 -10 51 -17 67 -16 15 1 28 -1 28 -6 0 -5 6 -6 14 -3
8 3 17 1 21 -5 3 -6 -2 -11 -12 -12 -13 -1 -11 -3 7 -9 14 -4 18 -8 10 -9 -8
-1 -28 -8 -45 -17 -18 -9 -42 -13 -58 -10 -17 4 -26 2 -22 -4 4 -6 -6 -10 -22
-11 -26 0 -25 -2 12 -16 61 -23 229 -11 320 22 39 15 86 31 105 36 61 18 130
54 126 66 -3 6 2 14 10 17 9 3 13 10 10 15 -3 5 6 12 20 15 17 5 24 12 20 21
-3 8 3 20 14 28 20 14 44 66 35 75 -3 3 -5 -1 -5 -9 0 -12 -2 -12 -10 1 -6 10
-5 20 4 30 18 20 26 47 28 98 1 24 5 38 9 31 11 -19 27 -1 24 28 -1 16 -10 45
-19 67 -9 21 -16 46 -16 55 0 16 -7 17 -110 22 -14 0 -27 4 -30 9 -3 4 -14 4
-25 0z m-198 -242 c-3 -8 -6 -5 -6 6 -1 11 2 17 5 13 3 -3 4 -12 1 -19z m-188
-112 c-18 -30 -21 -47 -16 -91 l5 -53 -31 3 c-38 3 -97 26 -97 37 0 4 -6 8
-14 8 -51 0 -4 65 73 101 46 22 94 38 99 34 2 -1 -7 -19 -19 -39z m282 -16 c5
-37 2 -45 -15 -45 -13 0 -22 12 -31 42 l-13 42 29 -15 c16 -8 30 -19 30 -24z
m-224 -5 c3 -9 3 -18 1 -21 -9 -9 -38 8 -38 22 0 19 29 18 37 -1z"/>
<path d="M2457 3420 c-3 -13 0 -20 9 -20 15 0 19 26 5 34 -5 3 -11 -3 -14 -14z"/>
<path d="M1237 3413 c-4 -3 -7 -13 -7 -22 1 -13 3 -13 11 2 11 19 8 33 -4 20z"/>
<path d="M2425 3270 c-3 -5 -4 -10 0 -10 3 0 0 -10 -6 -22 -12 -23 -12 -23 8
-3 20 20 26 45 12 45 -4 0 -11 -4 -14 -10z"/>
<path d="M2660 3221 c0 -5 7 -12 16 -15 14 -5 15 -4 4 9 -14 17 -20 19 -20 6z"/>
<path d="M2363 3213 c4 -6 0 -16 -8 -23 -17 -14 -8 -43 12 -36 8 3 11 1 8 -4
-10 -16 0 -12 25 10 13 11 29 20 37 20 7 0 13 4 13 9 0 13 -36 20 -51 10 -12
-7 -12 -9 0 -9 22 0 4 -13 -22 -16 -12 -2 -16 0 -9 2 15 7 16 30 0 40 -6 4 -8
3 -5 -3z"/>
<path d="M2591 3194 c0 -11 3 -14 6 -6 3 7 2 16 -1 19 -3 4 -6 -2 -5 -13z"/>
<path d="M2525 3170 c-3 -6 1 -10 9 -10 10 0 13 -6 10 -15 -4 -9 0 -15 10 -15
9 0 16 6 16 13 0 17 -37 39 -45 27z"/>
<path d="M2328 3133 c-9 -2 -19 -10 -21 -17 -4 -10 3 -11 34 -2 25 6 34 13 26
18 -6 4 -14 7 -17 7 -3 -1 -12 -3 -22 -6z"/>
<path d="M2508 3113 c7 -3 16 -2 19 1 4 3 -2 6 -13 5 -11 0 -14 -3 -6 -6z"/>
<path d="M2740 3059 c0 -5 5 -7 10 -4 6 3 10 8 10 11 0 2 -4 4 -10 4 -5 0 -10
-5 -10 -11z"/>
<path d="M2710 3041 c0 -5 5 -13 10 -16 6 -3 10 -2 10 4 0 5 -4 13 -10 16 -5
3 -10 2 -10 -4z"/>
<path d="M3160 2395 c0 -8 2 -15 4 -15 2 0 6 7 10 15 3 8 1 15 -4 15 -6 0 -10
-7 -10 -15z"/>
<path d="M1395 2320 c-3 -5 -1 -10 4 -10 6 0 11 5 11 10 0 6 -2 10 -4 10 -3 0
-8 -4 -11 -10z"/>
<path d="M2155 1460 c4 -6 11 -8 16 -5 14 9 11 15 -7 15 -8 0 -12 -5 -9 -10z"/>
<path d="M2197 1449 c-9 -6 -15 -14 -12 -20 10 -15 22 -10 28 11 3 11 4 20 4
20 -1 0 -10 -5 -20 -11z"/>
<path d="M2348 1433 c7 -3 16 -2 19 1 4 3 -2 6 -13 5 -11 0 -14 -3 -6 -6z"/>
<path d="M2286 1393 c-6 -14 -5 -15 5 -6 7 7 10 15 7 18 -3 3 -9 -2 -12 -12z"/>
<path d="M2334 1395 c-18 -13 -18 -14 4 -8 12 3 25 9 28 14 8 14 -10 11 -32
-6z"/>
<path d="M2090 1351 c0 -11 31 -24 38 -16 3 3 -1 5 -9 5 -11 0 -11 2 1 10 12
8 11 10 -7 10 -13 0 -23 -4 -23 -9z"/>
<path d="M2140 1330 c0 -5 5 -10 11 -10 5 0 7 5 4 10 -3 6 -8 10 -11 10 -2 0
-4 -4 -4 -10z"/>
<path d="M2243 1303 c4 -3 -1 -11 -10 -18 -14 -11 -14 -12 1 -18 10 -4 15 -3
11 3 -3 6 1 10 9 10 10 0 13 6 10 15 -4 8 -11 15 -17 15 -6 0 -7 -3 -4 -7z"/>
<path d="M1351 1267 c2 -1 13 -9 24 -17 19 -14 19 -14 6 3 -7 9 -18 17 -24 17
-6 0 -8 -1 -6 -3z"/>
<path d="M2201 1257 c2 -1 13 -9 24 -17 19 -14 19 -14 6 3 -7 9 -18 17 -24 17
-6 0 -8 -1 -6 -3z"/>
<path d="M2184 1230 c0 -13 4 -16 10 -10 7 7 7 13 0 20 -6 6 -10 3 -10 -10z"/>
<path d="M2104 1179 c1 -7 10 -13 19 -15 9 -1 15 2 11 7 -3 5 -9 7 -14 4 -4
-3 -11 0 -13 5 -3 6 -4 5 -3 -1z"/>
<path d="M2307 1144 c-7 -8 3 -34 13 -34 9 0 8 26 -1 35 -3 3 -8 2 -12 -1z"/>
<path d="M2345 1140 c3 -5 8 -10 11 -10 2 0 4 5 4 10 0 6 -5 10 -11 10 -5 0
-7 -4 -4 -10z"/>
<path d="M2205 1130 c-3 -5 1 -10 10 -10 9 0 13 5 10 10 -3 6 -8 10 -10 10 -2
0 -7 -4 -10 -10z"/>
<path d="M2380 1125 c-11 -13 -10 -14 4 -9 9 3 16 10 16 15 0 13 -6 11 -20 -6z"/>
<path d="M1485 1090 c-3 -6 1 -7 9 -4 18 7 21 14 7 14 -6 0 -13 -4 -16 -10z"/>
<path d="M2410 1086 c0 -2 7 -7 16 -10 8 -3 12 -2 9 4 -6 10 -25 14 -25 6z"/>
<path d="M2768 1060 c12 -5 22 -14 22 -20 0 -5 5 -10 11 -10 5 0 8 4 5 9 -4 5
-3 11 1 14 5 2 3 2 -4 1 -7 -2 -15 1 -18 6 -4 6 -14 10 -23 9 -12 0 -11 -3 6
-9z"/>
<path d="M2650 1050 c0 -5 5 -10 11 -10 5 0 7 5 4 10 -3 6 -8 10 -11 10 -2 0
-4 -4 -4 -10z"/>
<path d="M2710 1029 c0 -5 5 -7 10 -4 6 3 10 8 10 11 0 2 -4 4 -10 4 -5 0 -10
-5 -10 -11z"/>
<path d="M3176 924 c-5 -14 -4 -15 9 -4 17 14 19 20 6 20 -5 0 -12 -7 -15 -16z"/>
<path d="M2905 800 c-3 -5 -1 -10 4 -10 6 0 11 5 11 10 0 6 -2 10 -4 10 -3 0
-8 -4 -11 -10z"/>
<path d="M2836 738 c3 -4 11 -5 19 -1 21 7 19 12 -4 10 -11 0 -18 -5 -15 -9z"/>
<path d="M2760 714 c0 -8 5 -12 10 -9 6 3 10 10 10 16 0 5 -4 9 -10 9 -5 0
-10 -7 -10 -16z"/>
<path d="M2361 698 c-1 -21 4 -28 17 -28 11 0 13 3 6 8 -7 4 -14 16 -17 27 -4
15 -5 14 -6 -7z"/>
<path d="M2438 703 c7 -3 16 -2 19 1 4 3 -2 6 -13 5 -11 0 -14 -3 -6 -6z"/>
<path d="M1980 690 c0 -5 5 -10 11 -10 7 0 17 -6 23 -14 8 -10 17 -11 31 -5
19 9 18 9 -2 5 -13 -2 -23 0 -23 5 0 4 -9 13 -20 19 -14 7 -20 7 -20 0z"/>
<path d="M2095 690 c3 -5 8 -10 11 -10 2 0 4 5 4 10 0 6 -5 10 -11 10 -5 0 -7
-4 -4 -10z"/>
<path d="M2229 687 c7 -7 14 -8 21 -1 6 6 2 10 -12 11 -16 2 -18 -1 -9 -10z"/>
<path d="M2135 650 c3 -5 11 -10 16 -10 6 0 7 5 4 10 -3 6 -11 10 -16 10 -6 0
-7 -4 -4 -10z"/>
<path d="M2170 656 c0 -2 7 -7 16 -10 8 -3 12 -2 9 4 -6 10 -25 14 -25 6z"/>
</g>
</svg>
